<svg width="32" height="32" viewBox="0 0 32 32" fill="none" xmlns="http://www.w3.org/2000/svg">
<rect x="0.5" y="0.5" width="31" height="31" rx="15.5" fill="white"/>
<rect x="0.5" y="0.5" width="31" height="31" rx="15.5" stroke="#E4E4E4"/>
<path fill-rule="evenodd" clip-rule="evenodd" d="M17.6875 20.05C17.5988 20.0501 17.5111 20.0326 17.4292 19.9986C17.3474 19.9647 17.273 19.9148 17.2105 19.852L13.8355 16.477C13.7728 16.4144 13.723 16.3399 13.6891 16.258C13.6552 16.1761 13.6377 16.0883 13.6377 15.9997C13.6377 15.911 13.6552 15.8232 13.6891 15.7413C13.723 15.6594 13.7728 15.585 13.8355 15.5223L17.2105 12.1473C17.2727 12.0824 17.3472 12.0306 17.4297 11.995C17.5121 11.9593 17.6009 11.9404 17.6907 11.9395C17.7806 11.9386 17.8697 11.9556 17.9529 11.9896C18.0361 12.0235 18.1117 12.0738 18.1752 12.1373C18.2387 12.2009 18.2889 12.2765 18.3228 12.3597C18.3567 12.4429 18.3737 12.5321 18.3727 12.6219C18.3717 12.7118 18.3527 12.8006 18.317 12.883C18.2812 12.9654 18.2294 13.0399 18.1645 13.102L15.2672 16L18.1645 18.8973C18.259 18.9917 18.3234 19.1119 18.3496 19.2429C18.3757 19.3739 18.3624 19.5097 18.3113 19.6331C18.2603 19.7566 18.1737 19.8621 18.0627 19.9363C17.9516 20.0105 17.821 20.0501 17.6875 20.05Z" fill="#555555"/>
</svg>
