<svg width="16" height="16" viewBox="0 0 16 16" fill="none" xmlns="http://www.w3.org/2000/svg">
<rect x="0.5" y="0.5" width="15" height="15" rx="7.5" fill="white"/>
<rect x="0.5" y="0.5" width="15" height="15" rx="7.5" stroke="#C8C8C8"/>
<path d="M6.96582 9.61523C6.97656 8.25098 7.36328 7.83203 8.04004 7.41309C8.50195 7.12305 8.8457 6.75781 8.8457 6.2207C8.8457 5.61914 8.38379 5.23242 7.79297 5.23242C7.25586 5.23242 6.74023 5.57617 6.70801 6.2959H5.36523C5.39746 4.85645 6.48242 4.11523 7.80371 4.11523C9.25391 4.11523 10.2529 4.9209 10.2529 6.19922C10.2529 7.06934 9.8125 7.63867 9.11426 8.05762C8.49121 8.43359 8.2334 8.80957 8.22266 9.61523V9.71191H6.96582V9.61523ZM7.63184 12.0859C7.16992 12.0859 6.79395 11.71 6.79395 11.248C6.79395 10.7969 7.16992 10.4209 7.63184 10.4209C8.07227 10.4209 8.45898 10.7969 8.45898 11.248C8.45898 11.71 8.07227 12.0859 7.63184 12.0859Z" fill="#C8C8C8"/>
</svg>
