<svg width="127" height="24" viewBox="0 0 127 24" fill="none" xmlns="http://www.w3.org/2000/svg">
<path d="M31.5042 7.74941C31.8377 6.45864 32.3497 5.25953 33.0322 4.15588H35.0451C34.696 4.69816 34.3819 5.39701 34.1027 6.25625C33.8234 7.11548 33.6023 8.04728 33.4395 9.05164C33.2766 10.056 33.1951 11.0413 33.1951 11.9998C33.1951 12.9583 33.2766 13.9398 33.4395 14.9479C33.6023 15.9523 33.8234 16.8841 34.1027 17.7433C34.3819 18.6026 34.696 19.3014 35.0451 19.8437H33.0322C32.3497 18.74 31.8377 17.5409 31.5042 16.2501C31.1668 14.9556 31 13.5388 31 11.9998C31 10.4608 31.1668 9.044 31.5042 7.74941ZM46.0711 13.7908H34.5138V12.2175H46.0711V13.7908ZM40.308 9.21967C39.9279 9.8345 39.3539 10.3539 38.586 10.7701C37.8181 11.1902 36.8795 11.4651 35.7664 11.6026L35.0257 10.0598C35.9642 9.9567 36.7399 9.7543 37.3566 9.44879C37.9693 9.14329 38.4192 8.79578 38.7023 8.40244C38.9854 8.0091 39.1251 7.60048 39.1251 7.1804V6.85962H40.8742V7.1804C40.8742 7.92508 40.6842 8.60102 40.3041 9.21967H40.308ZM45.0628 7.55847H35.5376V6.02712H45.0628V7.55847ZM41.2543 17.8961H39.2531V13.3631H41.2543V17.8961ZM41.8903 8.40625C42.1657 8.79959 42.6117 9.14711 43.2244 9.44879C43.8372 9.75048 44.6168 9.9567 45.5631 10.0598L44.8378 11.6026C43.717 11.4651 42.7746 11.1864 42.0067 10.7701C41.2387 10.35 40.6648 9.8345 40.2808 9.21967C39.9007 8.60483 39.7068 7.92508 39.7068 7.1804V6.85962H41.4676V7.1804C41.4676 7.60429 41.6072 8.01291 41.8825 8.40625H41.8903ZM49.0807 16.2501C48.7472 17.5409 48.2352 18.74 47.5488 19.8437H45.5398C45.885 19.3014 46.1952 18.6026 46.4784 17.7433C46.7615 16.8841 46.9825 15.9523 47.1454 14.9479C47.3083 13.9436 47.3859 12.9583 47.3859 11.9998C47.3859 11.0413 47.3044 10.0598 47.1454 9.05164C46.9825 8.04728 46.7615 7.11548 46.4784 6.25625C46.1952 5.39701 45.8811 4.69816 45.5398 4.15588H47.5488C48.2352 5.25953 48.7472 6.45864 49.0807 7.74941C49.4142 9.044 49.581 10.4608 49.581 11.9998C49.581 13.5388 49.4142 14.9556 49.0807 16.2501Z" fill="white"/>
<path d="M58.0047 7.60791H54.0294V15.3411H51.811V5.81306H58.0086V7.61173L58.0047 7.60791ZM56.0694 14.4742C56.8994 14.4169 57.7371 14.3062 58.5903 14.1305L58.7609 15.9635C57.8961 16.1316 57.0312 16.2461 56.1586 16.3072C55.286 16.3683 54.2117 16.3989 52.928 16.3989H51.8071V14.5506H52.928C54.1962 14.5544 55.2433 14.5276 56.0694 14.4742ZM60.7389 11.6597H56.8955V9.83048H60.7389V11.6597ZM61.9179 19.2286H59.8042V4.28553H61.9179V19.2286ZM65.3502 19.9619H63.1667V4.00293H65.3502V19.9619Z" fill="white"/>
<path d="M73.6539 5.82833C74.3016 6.29423 74.8058 6.95489 75.1781 7.81413C75.5465 8.67337 75.7327 9.67008 75.7327 10.8043C75.7327 11.9385 75.5504 12.9505 75.182 13.8135C74.8135 14.6766 74.3093 15.3411 73.6617 15.807C73.0179 16.2729 72.2849 16.5058 71.4665 16.5058C70.6482 16.5058 69.9036 16.2729 69.2559 15.807C68.6082 15.3411 68.1002 14.6804 67.7317 13.8173C67.3633 12.9581 67.181 11.9538 67.1849 10.8043C67.181 9.67008 67.3633 8.66955 67.7317 7.81413C68.1002 6.95489 68.6121 6.29423 69.2598 5.82833C69.9113 5.36244 70.6443 5.12949 71.4665 5.12949C72.2887 5.12949 73.0101 5.36244 73.6578 5.82833H73.6539ZM70.3651 7.57355C70.0509 7.85614 69.8066 8.27239 69.6321 8.8223C69.4576 9.37221 69.3722 10.0329 69.3761 10.8043C69.3722 11.5871 69.4576 12.2516 69.6321 12.7977C69.8066 13.3476 70.0509 13.7639 70.3651 14.0503C70.6792 14.3367 71.0477 14.478 71.4665 14.478C71.8854 14.478 72.2461 14.3367 72.5563 14.0503C72.8666 13.7639 73.1071 13.3476 73.2816 12.7977C73.4522 12.2478 73.5376 11.5833 73.5376 10.8043C73.5376 10.0252 73.4522 9.37221 73.2816 8.8223C73.1071 8.27239 72.8666 7.85614 72.5525 7.57355C72.2422 7.29095 71.8776 7.14965 71.4665 7.14965C71.0554 7.14965 70.6792 7.29095 70.3651 7.57355ZM80.2625 20H77.9666V4.00293H80.2625V20Z" fill="white"/>
<path d="M90.4119 7.14965H85.1064V15.131H82.8337V5.34716H90.4081V7.14965H90.4119ZM87.9725 14.478C89.0235 14.4245 90.0862 14.3176 91.1604 14.1496L91.3854 15.9406C90.2646 16.1048 89.1515 16.2194 88.0423 16.2805C86.937 16.3416 85.63 16.376 84.1213 16.3798H82.8298V14.5582H84.1213C85.6339 14.5582 86.9176 14.5315 87.9686 14.478H87.9725ZM89.8186 11.549H84.5906V9.79611H89.8186V11.549ZM93.7899 11.4344H90.6718V9.64336H93.7899V11.4344ZM95.7601 20H93.5146V4.00293H95.7601V20Z" fill="white"/>
<path d="M112.301 18.1754H97.4897V16.3195H112.301V18.1754ZM111.068 7.13136H98.6455V5.34796H111.068V7.13136ZM110.994 13.4363H98.7192V11.6911H110.994V13.4363ZM103.152 11.9087H100.887V6.78384H103.152V11.9087ZM105.964 17.1634H103.718V12.6725H105.964V17.1634ZM108.783 11.9087H106.546V6.78384H108.783V11.9087Z" fill="white"/>
<path d="M121.155 6.64645H115.9V11.5231H113.647V4.88215H121.152V6.64645H121.155ZM115.412 10.3775C116.947 10.3775 118.154 10.3545 119.034 10.3125C119.914 10.2705 120.814 10.1865 121.733 10.049L121.892 11.8019C121.217 11.905 120.546 11.9814 119.883 12.0272C119.22 12.0768 118.549 12.1036 117.859 12.1188C117.172 12.1303 116.23 12.1379 115.032 12.1418H113.647V10.3736H115.408L115.412 10.3775ZM120.663 9.29291H115.315V7.62407H120.663V9.29291ZM126.523 17.2285H118.041V19.241H115.765V15.6169H124.266V14.7538H115.745V13.0392H126.523V17.2285ZM127 19.852H115.765V18.1297H127V19.852ZM124.685 9.16307H121.632V7.40258H124.685V9.16307ZM126.523 12.4587H124.262V4H126.523V12.4587Z" fill="white"/>
<path d="M11.5685 0.0114046C11.7662 0.0114046 11.9639 0.0114046 12.1654 0.0114046C12.1996 0.0570247 12.249 0.0494216 12.2984 0.0532233C12.5113 0.0760333 12.7204 0.125455 12.9219 0.201489C13.2679 0.330746 13.6062 0.463805 13.9484 0.596863C14.5718 0.840171 15.1953 1.08728 15.8188 1.33439C16.4233 1.5739 17.0277 1.8134 17.636 2.05291C18.1948 2.2734 18.7537 2.4863 19.3125 2.7144C19.9968 2.99192 20.5253 3.45573 20.8902 4.09821C21.0347 4.34912 21.1411 4.62284 21.259 4.88516C21.5251 5.48963 21.7874 6.09789 22.0535 6.70236C22.3197 7.30683 22.5896 7.91129 22.8557 8.51576C23.1522 9.19246 23.4488 9.87296 23.7415 10.5535C23.8517 10.8082 23.9278 11.0705 23.9696 11.3442C23.9734 11.3784 23.9886 11.4126 24 11.4431V12.249C23.9886 12.2908 23.9772 12.3364 23.9696 12.3783C23.9392 12.5189 23.9164 12.6634 23.8707 12.7965C23.7947 13.0208 23.7073 13.2412 23.6236 13.4617C23.483 13.8229 23.3385 14.1879 23.194 14.549C23.0648 14.8798 22.9317 15.2143 22.8025 15.5489C22.677 15.872 22.5478 16.1952 22.4185 16.5183C22.274 16.8833 22.1334 17.2482 21.9889 17.6132C21.8444 17.9781 21.7038 18.3431 21.5555 18.7081C21.4491 18.9704 21.354 19.2403 21.2286 19.495C20.8826 20.2135 20.3352 20.7306 19.6053 21.0575C19.2137 21.2324 18.8221 21.3997 18.4305 21.5707C17.9819 21.7684 17.5295 21.9623 17.0809 22.16C16.6856 22.3311 16.2902 22.5059 15.8948 22.677C15.507 22.8481 15.1155 23.0154 14.7277 23.1826C14.3399 23.3499 13.956 23.5172 13.5682 23.6883C13.2793 23.8175 12.9789 23.9164 12.6634 23.962C12.6368 23.9658 12.6102 23.9886 12.5836 24.0038H11.7586C11.7282 23.9886 11.6978 23.9658 11.6674 23.962C11.4735 23.9354 11.2834 23.8897 11.1009 23.8213C10.7131 23.6769 10.3254 23.521 9.94139 23.3689C9.64866 23.2549 9.35593 23.137 9.0594 23.0192C8.72865 22.8899 8.39411 22.7607 8.05956 22.6276C7.6984 22.4869 7.33724 22.3425 6.97228 22.198C6.64153 22.0687 6.31459 21.9395 5.98384 21.8102C5.68351 21.6924 5.38318 21.5783 5.08284 21.4567C4.86615 21.3692 4.64185 21.2856 4.43276 21.1754C3.80928 20.8522 3.33407 20.3732 3.02614 19.7421C2.85506 19.3886 2.70299 19.0274 2.54712 18.6662C2.32283 18.153 2.09853 17.636 1.87803 17.119C1.61191 16.5031 1.3458 15.8872 1.07968 15.2713C0.855379 14.7505 0.631078 14.2259 0.402978 13.7051C0.239506 13.3325 0.0912401 12.9561 0.0532233 12.5455C0.0532233 12.5075 0.0456201 12.4657 0 12.4505V11.8536C0.0570252 11.827 0.04562 11.77 0.057025 11.7206C0.0912401 11.5533 0.110249 11.386 0.163472 11.2264C0.247109 10.9678 0.349754 10.7169 0.444796 10.4622C0.642484 9.9604 0.840172 9.45858 1.03786 8.95675C1.22034 8.48915 1.40282 8.02154 1.5853 7.55774C1.74117 7.15856 1.90084 6.76319 2.05671 6.36401C2.2734 5.81277 2.4863 5.25772 2.7106 4.70648C3.01853 3.95755 3.53176 3.3911 4.25788 3.03374C4.74069 2.79803 5.23871 2.59655 5.72913 2.37985C6.21194 2.16696 6.69476 1.96167 7.17757 1.74877C7.6946 1.52447 8.21163 1.29637 8.73246 1.07207C9.21907 0.859179 9.70188 0.650088 10.1885 0.437194C10.3634 0.36116 10.5383 0.281323 10.7169 0.212893C10.9526 0.121653 11.1997 0.0608263 11.4507 0.0380162C11.4887 0.0380162 11.5229 0.0152067 11.5571 0L11.5685 0.0114046ZM11.9753 2.78283C11.1883 2.78283 10.4014 2.78283 9.61444 2.78283C9.40915 2.78283 9.20767 2.79043 9.00237 2.82464C8.73626 2.87026 8.47774 2.9425 8.23063 3.04895C7.82766 3.22383 7.4741 3.47473 7.16236 3.78647C6.03707 4.91557 4.90797 6.04087 3.78267 7.16997C3.623 7.32964 3.47473 7.50071 3.34548 7.69079C3.09457 8.06336 2.92729 8.47394 2.83985 8.91494C2.79423 9.14304 2.78663 9.37114 2.78663 9.60304C2.78663 10.7207 2.78663 11.8384 2.78663 12.9561C2.78663 13.4732 2.78663 13.994 2.79423 14.511C2.79423 14.8456 2.86647 15.1725 2.97671 15.488C3.15159 15.9823 3.43292 16.4042 3.80548 16.773C4.82433 17.7881 5.83938 18.8031 6.85443 19.8182C7.07112 20.0348 7.27641 20.2629 7.52352 20.4492C8.09758 20.8864 8.74766 21.1259 9.46998 21.1297C11.1351 21.1373 12.8003 21.1297 14.4654 21.1297C14.8113 21.1297 15.1459 21.0689 15.4728 20.9549C15.9594 20.7876 16.3852 20.5139 16.7502 20.1489C17.8755 19.0198 19.0008 17.8945 20.1299 16.7692C20.4454 16.4575 20.6963 16.1039 20.8712 15.6971C21.0347 15.3208 21.1297 14.9254 21.1335 14.5148C21.1373 12.8269 21.1335 11.1427 21.1335 9.45477C21.1335 9.11262 21.0689 8.77808 20.9587 8.45874C20.7952 7.98353 20.5405 7.56154 20.1831 7.20418C19.552 6.5731 18.921 5.93822 18.2899 5.30714C17.7424 4.7597 17.1988 4.20846 16.6437 3.66862C16.237 3.27324 15.7466 3.01853 15.1953 2.87787C14.9216 2.80944 14.6403 2.78283 14.3589 2.78283C13.5606 2.78283 12.766 2.78283 11.9677 2.78283H11.9753Z" fill="url(#paint0_linear_98_733)"/>
<defs>
<linearGradient id="paint0_linear_98_733" x1="3.80548" y1="3.31887" x2="12.766" y2="12.8117" gradientUnits="userSpaceOnUse">
<stop stop-color="#E61F19"/>
<stop offset="0.4" stop-color="#E61F19"/>
<stop offset="0.61" stop-color="#E31D19"/>
<stop offset="0.76" stop-color="#821B1F"/>
<stop offset="0.86" stop-color="#4C060B"/>
<stop offset="0.91" stop-color="#320204"/>
<stop offset="0.92" stop-color="#2A0A0A"/>
<stop offset="0.95" stop-color="#1B1716"/>
<stop offset="1" stop-color="#1B1615"/>
</linearGradient>
</defs>
</svg>
