<svg width="32" height="32" viewBox="0 0 32 32" fill="none" xmlns="http://www.w3.org/2000/svg">
<rect x="0.5" y="0.5" width="31" height="31" rx="3.5" fill="#00BFFF" fill-opacity="0.05"/>
<rect x="0.5" y="0.5" width="31" height="31" rx="3.5" stroke="#234257"/>
<path d="M8.03313 7.75394C7.87736 7.82533 7.80921 7.89673 7.74106 8.05899C7.69887 8.15959 7.69238 8.4549 7.69238 10.2138C7.69238 12.2193 7.69238 12.2485 7.76053 12.3913C7.83517 12.5438 8.00068 12.6704 8.16943 12.7061C8.42255 12.758 8.75032 12.5471 8.82495 12.2842C8.84767 12.1999 8.86065 11.7196 8.86065 10.9212V9.68807L10.7526 11.5768C12.0604 12.8846 12.677 13.4817 12.7614 13.5174C12.9204 13.5823 13.0664 13.5791 13.2254 13.5044C13.3812 13.433 13.4494 13.3616 13.5175 13.1994C13.5792 13.0501 13.5792 12.9138 13.5175 12.7613C13.4818 12.6769 12.8847 12.0603 11.5769 10.7493L9.68818 8.86055H10.9213C11.7197 8.86055 12.2 8.84757 12.2843 8.82485C12.5472 8.75021 12.7581 8.42245 12.7062 8.16932C12.6705 8.00057 12.5439 7.83507 12.3914 7.76043C12.2486 7.69228 12.2194 7.69228 10.2042 7.69228C8.29274 7.69228 8.1532 7.69877 8.03313 7.75394Z" fill="#8E8E8E"/>
<path d="M19.6086 7.76044C19.4561 7.83833 19.3295 8.00383 19.2938 8.16934C19.2419 8.42246 19.4529 8.75023 19.7157 8.82487C19.8001 8.84758 20.2804 8.86056 21.0787 8.86056H22.3119L20.4232 10.7493C19.1154 12.0603 18.5182 12.6769 18.4825 12.7613C18.4176 12.9203 18.4209 13.0663 18.4955 13.2253C18.5669 13.3811 18.6383 13.4493 18.8006 13.5174C18.9498 13.5791 19.0861 13.5791 19.2387 13.5174C19.323 13.4817 19.9396 12.8846 21.2507 11.5768L23.1394 9.68809V10.9213C23.1394 11.7196 23.1524 12.1999 23.1751 12.2842C23.2497 12.5471 23.5775 12.758 23.8306 12.7061C23.9994 12.6704 24.1649 12.5439 24.2395 12.3913C24.3077 12.2485 24.3077 12.2193 24.3077 10.2138C24.3077 8.45492 24.3012 8.1596 24.259 8.059C24.1908 7.89674 24.1227 7.82535 23.9669 7.75395C23.8468 7.69879 23.7073 7.6923 21.7926 7.6923C19.7676 7.6923 19.7482 7.6923 19.6086 7.76044Z" fill="#8E8E8E"/>
<path d="M12.8198 18.4047C12.7581 18.4404 11.8397 19.336 10.7851 20.3907L8.86065 22.3119V21.0787C8.86065 20.2804 8.84767 19.8001 8.82495 19.7157C8.75032 19.4529 8.42255 19.2419 8.16943 19.2939C8.00068 19.3296 7.83517 19.4561 7.76053 19.6086C7.69238 19.7514 7.69238 19.7806 7.69238 21.7959C7.69238 23.7073 7.69887 23.8469 7.75404 23.9669C7.82544 24.1227 7.89683 24.1909 8.05909 24.259C8.15969 24.3012 8.455 24.3077 10.2139 24.3077C12.2194 24.3077 12.2486 24.3077 12.3914 24.2395C12.5439 24.1649 12.6705 23.9994 12.7062 23.8306C12.7581 23.5775 12.5472 23.2497 12.2843 23.1751C12.2 23.1524 11.7197 23.1394 10.9213 23.1394H9.68818L11.6256 21.202C12.69 20.1344 13.5857 19.2127 13.6149 19.1511C13.7447 18.8882 13.6084 18.489 13.352 18.382C13.193 18.3138 12.9528 18.3235 12.8198 18.4047Z" fill="#8E8E8E"/>
<path d="M18.6448 18.382C18.5247 18.4339 18.4176 18.5507 18.3722 18.6708C18.3203 18.8038 18.33 19.0375 18.3884 19.1576C18.4176 19.216 19.3101 20.1344 20.3745 21.202L22.3119 23.1394H21.0787C20.2804 23.1394 19.8001 23.1524 19.7157 23.1751C19.4529 23.2497 19.2419 23.5775 19.2938 23.8306C19.3295 23.9994 19.4561 24.1649 19.6086 24.2395C19.7514 24.3077 19.7806 24.3077 21.7959 24.3077C23.7073 24.3077 23.8469 24.3012 23.9669 24.246C24.1227 24.1746 24.1908 24.1032 24.259 23.941C24.3012 23.8404 24.3077 23.5451 24.3077 21.7862C24.3077 19.7806 24.3077 19.7514 24.2395 19.6086C24.1649 19.4561 23.9994 19.3296 23.8306 19.2939C23.5775 19.2419 23.2497 19.4529 23.1751 19.7157C23.1524 19.8001 23.1394 20.2804 23.1394 21.0787V22.3119L21.202 20.3745C20.1344 19.3101 19.216 18.4177 19.1575 18.3884C19.031 18.3268 18.7779 18.3235 18.6448 18.382Z" fill="#8E8E8E"/>
</svg>
