<svg width="56" height="56" viewBox="0 0 56 56" fill="none" xmlns="http://www.w3.org/2000/svg">
<rect width="56" height="56" rx="8" fill="#234257"/>
<rect x="16" y="16" width="24" height="24" stroke="white" stroke-width="2"/>
<path d="M21.1591 33V31.7578L23.8895 28.9219C24.5927 28.1719 25.0614 27.7266 25.0731 27.0234C25.0731 26.2383 24.5341 25.8047 23.8544 25.8047C23.163 25.8047 22.6708 26.2734 22.6708 27.1172H21.1005C21.0887 25.4766 22.2137 24.3984 23.8895 24.3984C25.5302 24.3984 26.6903 25.418 26.6903 26.9062C26.6903 27.8555 26.2919 28.6289 24.6864 30.2461L23.4911 31.5V31.5469H26.7958V33H21.1591ZM30.8331 33H27.8448V24.5156H30.8683C33.423 24.5156 34.9816 26.1094 34.9816 28.7461C34.9816 31.4062 33.423 33 30.8331 33ZM29.6027 31.4883H30.7628C32.38 31.4883 33.2238 30.6445 33.2238 28.7461C33.2238 26.8594 32.38 26.0273 30.7745 26.0273H29.6027V31.4883Z" fill="white"/>
</svg>
