<svg width="32" height="32" viewBox="0 0 32 32" fill="none" xmlns="http://www.w3.org/2000/svg">
<rect x="0.5" y="0.5" width="31" height="31" rx="15.5" fill="#1D1D1D" fill-opacity="0.05"/>
<rect x="0.5" y="0.5" width="31" height="31" rx="15.5" stroke="#234257"/>
<path fill-rule="evenodd" clip-rule="evenodd" d="M14.3125 20.05C14.4012 20.05 14.4889 20.0326 14.5708 19.9986C14.6526 19.9646 14.727 19.9148 14.7895 19.852L18.1645 16.477C18.2272 16.4143 18.277 16.3399 18.3109 16.258C18.3448 16.1761 18.3623 16.0883 18.3623 15.9996C18.3623 15.911 18.3448 15.8232 18.3109 15.7413C18.277 15.6593 18.2272 15.5849 18.1645 15.5222L14.7895 12.1472C14.7273 12.0824 14.6528 12.0306 14.5703 11.9949C14.4879 11.9592 14.3991 11.9404 14.3093 11.9394C14.2194 11.9385 14.1303 11.9555 14.0471 11.9895C13.9639 12.0235 13.8883 12.0737 13.8248 12.1373C13.7613 12.2008 13.7111 12.2765 13.6772 12.3597C13.6433 12.4429 13.6263 12.532 13.6273 12.6219C13.6283 12.7117 13.6473 12.8005 13.683 12.8829C13.7188 12.9654 13.7706 13.0398 13.8355 13.102L16.7328 16L13.8355 18.8972C13.741 18.9916 13.6766 19.1119 13.6504 19.2429C13.6243 19.3739 13.6376 19.5097 13.6887 19.6331C13.7397 19.7565 13.8263 19.862 13.9373 19.9362C14.0484 20.0104 14.179 20.05 14.3125 20.05Z" fill="#8E8E8E"/>
</svg>
