<svg width="56" height="56" viewBox="0 0 56 56" fill="none" xmlns="http://www.w3.org/2000/svg">
<rect x="0.5" y="0.5" width="55" height="55" rx="7.5" fill="#00BFFF" fill-opacity="0.05"/>
<rect x="0.5" y="0.5" width="55" height="55" rx="7.5" stroke="#234257"/>
<path d="M23.14 23.6281C23.4126 23.5032 23.5319 23.3783 23.6511 23.0943C23.725 22.9182 23.7363 22.4014 23.7363 19.3234C23.7363 15.8137 23.7363 15.7626 23.6171 15.5127C23.4864 15.2458 23.1968 15.0243 22.9015 14.9618C22.4585 14.871 21.8849 15.2401 21.7543 15.7001C21.7146 15.8478 21.6919 16.6883 21.6919 18.0853V20.2434L18.3809 16.9382C16.0923 14.6495 15.0133 13.6045 14.8656 13.5421C14.5873 13.4285 14.3318 13.4342 14.0535 13.5648C13.7809 13.6897 13.6616 13.8147 13.5424 14.0986C13.4345 14.3599 13.4345 14.5984 13.5424 14.8653C13.6048 15.013 14.6498 16.092 16.9385 18.3863L20.2437 21.6916H18.0856C16.6886 21.6916 15.8481 21.7143 15.7004 21.754C15.2404 21.8847 14.8713 22.4582 14.9621 22.9012C15.0246 23.1965 15.2461 23.4862 15.513 23.6168C15.7629 23.736 15.814 23.736 19.3407 23.736C22.6857 23.736 22.9299 23.7247 23.14 23.6281Z" fill="#8E8E8E"/>
<path d="M40.4874 23.6172C40.7543 23.4809 40.9758 23.1912 41.0383 22.9016C41.1291 22.4586 40.76 21.8851 40.3 21.7544C40.1523 21.7147 39.3118 21.692 37.9148 21.692H35.7567L39.062 18.3867C41.3506 16.0924 42.3956 15.0134 42.458 14.8657C42.5716 14.5874 42.566 14.3319 42.4353 14.0536C42.3104 13.781 42.1855 13.6617 41.9015 13.5425C41.6403 13.4346 41.4017 13.4346 41.1348 13.5425C40.9872 13.6049 39.9081 14.6499 37.6138 16.9386L34.3086 20.2438V18.0857C34.3086 16.6887 34.2858 15.8482 34.2461 15.7005C34.1155 15.2405 33.5419 14.8714 33.0989 14.9622C32.8036 15.0247 32.514 15.2462 32.3833 15.5131C32.2641 15.763 32.2641 15.8141 32.2641 19.3238C32.2641 22.4018 32.2754 22.9186 32.3493 23.0947C32.4685 23.3787 32.5878 23.5036 32.8604 23.6285C33.0705 23.7251 33.3147 23.7364 36.6654 23.7364C40.2091 23.7364 40.2432 23.7364 40.4874 23.6172Z" fill="#8E8E8E"/>
<path d="M14.9401 42.4194C15.048 42.357 16.6552 40.7895 18.5009 38.9438L21.8686 35.5818V37.7399C21.8686 39.1369 21.8913 39.9774 21.9311 40.1251C22.0617 40.5851 22.6353 40.9542 23.0783 40.8634C23.3736 40.8009 23.6632 40.5794 23.7938 40.3125C23.9131 40.0626 23.9131 40.0115 23.9131 36.4848C23.9131 33.1398 23.9017 32.8956 23.8052 32.6855C23.6802 32.4129 23.5553 32.2936 23.2713 32.1744C23.0953 32.1005 22.5785 32.0892 19.5004 32.0892C15.9908 32.0892 15.9396 32.0892 15.6898 32.2084C15.4229 32.3391 15.2014 32.6287 15.1389 32.924C15.048 33.367 15.4172 33.9406 15.8772 34.0712C16.0248 34.1109 16.8653 34.1336 18.2624 34.1336H20.4204L17.03 37.5241C15.1673 39.3925 13.5999 41.0053 13.5488 41.1132C13.3216 41.5732 13.5601 42.2718 14.0088 42.4592C14.287 42.5784 14.7073 42.5614 14.9401 42.4194Z" fill="#8E8E8E"/>
<path d="M42.0023 42.4652C42.2124 42.3744 42.3999 42.1699 42.4794 41.9598C42.5702 41.7269 42.5532 41.3181 42.451 41.1079C42.3999 41.0057 40.8381 39.3985 38.9754 37.5301L35.585 34.1397H37.743C39.1401 34.1397 39.9806 34.117 40.1282 34.0772C40.5882 33.9466 40.9574 33.373 40.8665 32.93C40.804 32.6347 40.5826 32.3451 40.3156 32.2145C40.0658 32.0952 40.0146 32.0952 36.4879 32.0952C33.1429 32.0952 32.8987 32.1066 32.6886 32.2031C32.416 32.3281 32.2968 32.453 32.1775 32.737C32.1037 32.913 32.0923 33.4298 32.0923 36.5079C32.0923 40.0175 32.0923 40.0687 32.2116 40.3185C32.3422 40.5854 32.6318 40.8069 32.9271 40.8694C33.3701 40.9603 33.9437 40.5911 34.0743 40.1311C34.1141 39.9835 34.1368 39.143 34.1368 37.7459V35.5879L37.5272 38.9783C39.3956 40.841 41.0028 42.4028 41.105 42.4539C41.3265 42.5618 41.7695 42.5674 42.0023 42.4652Z" fill="#8E8E8E"/>
</svg>
