<svg width="56" height="56" viewBox="0 0 56 56" fill="none" xmlns="http://www.w3.org/2000/svg">
<rect x="0.5" y="0.5" width="55" height="55" rx="7.5" fill="#00BFFF" fill-opacity="0.05"/>
<rect x="0.5" y="0.5" width="55" height="55" rx="7.5" stroke="#234257"/>
<path d="M13.1923 18.2922H16.8754C17.1644 19.3127 17.7951 20.2136 18.6703 20.8559C19.5455 21.4982 20.6165 21.8462 21.7182 21.8462C22.8199 21.8462 23.8909 21.4982 24.7661 20.8559C25.6413 20.2136 26.2721 19.3127 26.561 18.2922H42.8077C43.1648 18.2922 43.5072 18.1561 43.7596 17.9138C44.0121 17.6714 44.1539 17.3427 44.1539 17C44.1539 16.6573 44.0121 16.3286 43.7596 16.0863C43.5072 15.8439 43.1648 15.7078 42.8077 15.7078H26.561C26.2721 14.6873 25.6413 13.7864 24.7661 13.1441C23.8909 12.5019 22.8199 12.1539 21.7182 12.1539C20.6165 12.1539 19.5455 12.5019 18.6703 13.1441C17.7951 13.7864 17.1644 14.6873 16.8754 15.7078H13.1923C12.8353 15.7078 12.4929 15.8439 12.2405 16.0863C11.988 16.3286 11.8462 16.6573 11.8462 17C11.8462 17.3427 11.988 17.6714 12.2405 17.9138C12.4929 18.1561 12.8353 18.2922 13.1923 18.2922ZM21.7175 14.7386C22.1835 14.7386 22.6389 14.8713 23.0263 15.1198C23.4137 15.3682 23.7157 15.7214 23.894 16.1346C24.0723 16.5478 24.1189 17.0025 24.028 17.4412C23.9371 17.8799 23.7128 18.2828 23.3833 18.5991C23.0539 18.9153 22.6341 19.1307 22.1771 19.218C21.7202 19.3052 21.2465 19.2604 20.816 19.0893C20.3856 18.9181 20.0176 18.6283 19.7588 18.2564C19.4999 17.8845 19.3618 17.4473 19.3618 17C19.3625 16.4005 19.6109 15.8257 20.0525 15.4017C20.4942 14.9778 21.093 14.7393 21.7175 14.7386Z" fill="#8E8E8E"/>
<path d="M42.8077 26.4005H39.1247C38.8362 25.38 38.2057 24.479 37.3306 23.8366C36.4555 23.1942 35.3843 22.8462 34.2825 22.8462C33.1808 22.8462 32.1096 23.1942 31.2345 23.8366C30.3593 24.479 29.7289 25.38 29.4404 26.4005H13.1923C12.8353 26.4005 12.4929 26.5366 12.2405 26.7788C11.988 27.0211 11.8462 27.3497 11.8462 27.6923C11.8462 28.035 11.988 28.3636 12.2405 28.6058C12.4929 28.8481 12.8353 28.9842 13.1923 28.9842H29.4404C29.7289 30.0047 30.3593 30.9057 31.2345 31.5481C32.1096 32.1904 33.1808 32.5385 34.2825 32.5385C35.3843 32.5385 36.4555 32.1904 37.3306 31.5481C38.2057 30.9057 38.8362 30.0047 39.1247 28.9842H42.8077C43.1648 28.9842 43.5072 28.8481 43.7596 28.6058C44.0121 28.3636 44.1539 28.035 44.1539 27.6923C44.1539 27.3497 44.0121 27.0211 43.7596 26.7788C43.5072 26.5366 43.1648 26.4005 42.8077 26.4005ZM34.2825 29.9531C33.8166 29.9531 33.3611 29.8205 32.9737 29.5721C32.5863 29.3237 32.2844 28.9706 32.1061 28.5575C31.9278 28.1444 31.8811 27.6898 31.972 27.2513C32.0629 26.8127 32.2873 26.4099 32.6168 26.0937C32.9462 25.7775 33.366 25.5622 33.823 25.475C34.2799 25.3878 34.7536 25.4325 35.1841 25.6036C35.6145 25.7748 35.9824 26.0645 36.2413 26.4363C36.5001 26.8081 36.6383 27.2452 36.6383 27.6923C36.6376 28.2917 36.3892 28.8664 35.9475 29.2902C35.5059 29.714 34.9071 29.9525 34.2825 29.9531Z" fill="#8E8E8E"/>
<path d="M42.8077 37.0924H26.561C26.2721 36.0719 25.6413 35.1711 24.7661 34.5288C23.8909 33.8865 22.8199 33.5385 21.7182 33.5385C20.6165 33.5385 19.5455 33.8865 18.6703 34.5288C17.7951 35.1711 17.1644 36.0719 16.8754 37.0924H13.1923C12.8353 37.0924 12.4929 37.2286 12.2405 37.4709C11.988 37.7133 11.8462 38.0419 11.8462 38.3847C11.8462 38.7274 11.988 39.0561 12.2405 39.2984C12.4929 39.5407 12.8353 39.6769 13.1923 39.6769H16.8754C17.1644 40.6974 17.7951 41.5983 18.6703 42.2406C19.5455 42.8828 20.6165 43.2308 21.7182 43.2308C22.8199 43.2308 23.8909 42.8828 24.7661 42.2406C25.6413 41.5983 26.2721 40.6974 26.561 39.6769H42.8077C43.1648 39.6769 43.5072 39.5407 43.7596 39.2984C44.0121 39.0561 44.1539 38.7274 44.1539 38.3847C44.1539 38.0419 44.0121 37.7133 43.7596 37.4709C43.5072 37.2286 43.1648 37.0924 42.8077 37.0924ZM21.7175 40.646C21.2516 40.646 20.7961 40.5134 20.4087 40.2649C20.0213 40.0165 19.7194 39.6633 19.5411 39.2501C19.3628 38.8368 19.3161 38.3822 19.407 37.9435C19.4979 37.5048 19.7223 37.1019 20.0518 36.7856C20.3812 36.4694 20.801 36.254 21.2579 36.1667C21.7149 36.0795 22.1886 36.1243 22.6191 36.2954C23.0495 36.4666 23.4174 36.7564 23.6763 37.1283C23.9351 37.5002 24.0733 37.9374 24.0733 38.3847C24.0722 38.9841 23.8237 39.5587 23.3821 39.9826C22.9406 40.4064 22.342 40.645 21.7175 40.646Z" fill="#8E8E8E"/>
</svg>
