<svg width="56" height="56" viewBox="0 0 56 56" fill="none" xmlns="http://www.w3.org/2000/svg">
<rect x="0.5" y="0.5" width="55" height="55" rx="7.5" fill="#00BFFF" fill-opacity="0.05"/>
<rect x="0.5" y="0.5" width="55" height="55" rx="7.5" stroke="#234257"/>
<path d="M41.3268 40.1154H17.096C16.7747 40.1154 16.4666 39.9878 16.2394 39.7605C16.0121 39.5333 15.8845 39.2252 15.8845 38.9039V14.6731C15.8845 14.3518 15.7569 14.0436 15.5297 13.8164C15.3024 13.5892 14.9943 13.4615 14.673 13.4615C14.3516 13.4615 14.0435 13.5892 13.8163 13.8164C13.5891 14.0436 13.4614 14.3518 13.4614 14.6731V38.9039C13.4614 39.8678 13.8444 40.7923 14.526 41.4739C15.2076 42.1555 16.1321 42.5385 17.096 42.5385H41.3268C41.6481 42.5385 41.9563 42.4108 42.1835 42.1836C42.4107 41.9564 42.5383 41.6483 42.5383 41.3269C42.5383 41.0056 42.4107 40.6975 42.1835 40.4702C41.9563 40.243 41.6481 40.1154 41.3268 40.1154Z" fill="#8E8E8E"/>
<path d="M30.8268 37.6923C31.1481 37.6923 31.4563 37.56 31.6835 37.3243C31.9107 37.0887 32.0383 36.7691 32.0383 36.4359V27.6411C32.0383 27.3078 31.9107 26.9883 31.6835 26.7526C31.4563 26.517 31.1481 26.3846 30.8268 26.3846C30.5055 26.3846 30.1973 26.517 29.9701 26.7526C29.7429 26.9883 29.6152 27.3078 29.6152 27.6411V36.4359C29.6152 36.7691 29.7429 37.0887 29.9701 37.3243C30.1973 37.56 30.5055 37.6923 30.8268 37.6923Z" fill="#8E8E8E"/>
<path d="M21.1344 37.6923C21.4557 37.6923 21.7639 37.56 21.9911 37.3243C22.2183 37.0887 22.3459 36.7691 22.3459 36.4359V27.6411C22.3459 27.3078 22.2183 26.9883 21.9911 26.7526C21.7639 26.517 21.4557 26.3846 21.1344 26.3846C20.8131 26.3846 20.5049 26.517 20.2777 26.7526C20.0505 26.9883 19.9229 27.3078 19.9229 27.6411V36.4359C19.9229 36.7691 20.0505 37.0887 20.2777 37.3243C20.5049 37.56 20.8131 37.6923 21.1344 37.6923Z" fill="#8E8E8E"/>
<path d="M35.673 37.6923C35.9943 37.6923 36.3024 37.5707 36.5297 37.3543C36.7569 37.138 36.8845 36.8445 36.8845 36.5385V22.6923C36.8845 22.3863 36.7569 22.0928 36.5297 21.8764C36.3024 21.66 35.9943 21.5385 35.673 21.5385C35.3516 21.5385 35.0435 21.66 34.8163 21.8764C34.5891 22.0928 34.4614 22.3863 34.4614 22.6923V36.5385C34.4614 36.8445 34.5891 37.138 34.8163 37.3543C35.0435 37.5707 35.3516 37.6923 35.673 37.6923Z" fill="#8E8E8E"/>
<path d="M25.9806 37.6923C26.3019 37.6923 26.6101 37.5707 26.8373 37.3543C27.0645 37.138 27.1921 36.8445 27.1921 36.5385V22.6923C27.1921 22.3863 27.0645 22.0928 26.8373 21.8764C26.6101 21.66 26.3019 21.5385 25.9806 21.5385C25.6593 21.5385 25.3511 21.66 25.1239 21.8764C24.8967 22.0928 24.769 22.3863 24.769 22.6923V36.5385C24.769 36.8445 24.8967 37.138 25.1239 37.3543C25.3511 37.5707 25.6593 37.6923 25.9806 37.6923Z" fill="#8E8E8E"/>
</svg>
