<svg width="32" height="32" viewBox="0 0 32 32" fill="none" xmlns="http://www.w3.org/2000/svg">
<rect x="31.5" y="31.5" width="31" height="31" rx="15.5" transform="rotate(-180 31.5 31.5)" fill="#1D1D1D" fill-opacity="0.05"/>
<rect x="31.5" y="31.5" width="31" height="31" rx="15.5" transform="rotate(-180 31.5 31.5)" stroke="#234257"/>
<path fill-rule="evenodd" clip-rule="evenodd" d="M17.6875 11.95C17.5988 11.95 17.5111 11.9674 17.4292 12.0014C17.3474 12.0354 17.273 12.0852 17.2105 12.148L13.8355 15.523C13.7728 15.5857 13.723 15.6601 13.6891 15.742C13.6552 15.8239 13.6377 15.9117 13.6377 16.0004C13.6377 16.089 13.6552 16.1768 13.6891 16.2587C13.723 16.3407 13.7728 16.4151 13.8355 16.4778L17.2105 19.8528C17.2727 19.9176 17.3472 19.9694 17.4297 20.0051C17.5121 20.0408 17.6009 20.0596 17.6907 20.0606C17.7806 20.0615 17.8697 20.0445 17.9529 20.0105C18.0361 19.9765 18.1117 19.9263 18.1752 19.8627C18.2387 19.7992 18.2889 19.7235 18.3228 19.6403C18.3567 19.5571 18.3737 19.468 18.3727 19.3781C18.3717 19.2883 18.3527 19.1995 18.317 19.1171C18.2812 19.0346 18.2294 18.9602 18.1645 18.898L15.2672 16L18.1645 13.1028C18.259 13.0084 18.3234 12.8881 18.3496 12.7571C18.3757 12.6261 18.3624 12.4903 18.3113 12.3669C18.2603 12.2435 18.1737 12.138 18.0627 12.0638C17.9516 11.9896 17.821 11.95 17.6875 11.95Z" fill="#8E8E8E"/>
</svg>
