<svg width="32" height="32" viewBox="0 0 32 32" fill="none" xmlns="http://www.w3.org/2000/svg">
<rect x="0.5" y="0.5" width="31" height="31" rx="3.5" fill="#00BFFF" fill-opacity="0.05"/>
<rect x="0.5" y="0.5" width="31" height="31" rx="3.5" stroke="#234257"/>
<path d="M12.4095 15.242C12.517 15.2404 12.6104 15.3205 12.623 15.4297C12.6365 15.546 12.5532 15.6513 12.4369 15.6648L12.3555 15.6748C11.5067 15.7853 10.3934 16.1097 9.51276 16.612C8.58758 17.1397 8.0086 17.8078 8.10118 18.5645C8.14365 18.9114 8.41536 19.2284 8.91807 19.5101C9.41559 19.7889 10.0955 20.0072 10.8585 20.1732C12.1744 20.4594 13.6967 20.5814 14.8557 20.6093L13.8744 19.6281C13.7916 19.5452 13.7916 19.4109 13.8744 19.3281C13.9573 19.2453 14.0915 19.2453 14.1744 19.3281L15.5244 20.6781C15.6072 20.7609 15.6072 20.8952 15.5244 20.978L14.1744 22.328C14.0915 22.4109 13.9573 22.4109 13.8744 22.328C13.7916 22.2452 13.7916 22.1109 13.8744 22.0281L14.8684 21.034C13.688 21.0067 12.1264 20.8832 10.7683 20.5878C9.98813 20.4181 9.26135 20.1889 8.71064 19.8802C8.16518 19.5746 7.74706 19.1643 7.67996 18.616C7.5535 17.5824 8.35319 16.785 9.30256 16.2435C10.268 15.6928 11.4814 15.3487 12.3878 15.2433L12.4095 15.242Z" fill="#8E8E8E" stroke="#8E8E8E" stroke-width="0.7"/>
<path d="M19.2621 9.86806C19.1546 9.86649 19.0613 9.94664 19.0486 10.0558C19.0351 10.1721 19.1184 10.2774 19.2348 10.2909L19.3161 10.3009C20.1649 10.4114 21.2782 10.7358 22.1589 11.2381C23.0841 11.7658 23.663 12.4339 23.5705 13.1906C23.528 13.5375 23.2563 13.8545 22.7536 14.1362C22.256 14.415 21.5762 14.6333 20.8132 14.7993C19.4972 15.0855 17.9749 15.2075 16.816 15.2354L17.7972 14.2542C17.8801 14.1713 17.8801 14.037 17.7972 13.9542C17.7144 13.8714 17.5801 13.8714 17.4973 13.9542L16.1473 15.3042C16.0644 15.387 16.0644 15.5213 16.1473 15.6041L17.4973 16.9541C17.5801 17.037 17.7144 17.037 17.7972 16.9541C17.8801 16.8713 17.8801 16.737 17.7972 16.6542L16.8033 15.6601C17.9836 15.6328 19.5453 15.5093 20.9034 15.2139C21.6835 15.0442 22.4103 14.815 22.961 14.5063C23.5065 14.2007 23.9246 13.7904 23.9917 13.2421C24.1181 12.2085 23.3184 11.4111 22.3691 10.8696C21.4036 10.3189 20.1902 9.97484 19.2838 9.86945L19.2621 9.86806Z" fill="#8E8E8E" stroke="#8E8E8E" stroke-width="0.7"/>
<path d="M17.2629 18.5167L17.3069 18.5909L18.302 20.2697L19.2971 18.5909L19.3401 18.5167H20.2688L20.1282 18.7452L18.7034 21.0675V22.8165H17.9006V21.0685L16.4807 18.7452L16.3411 18.5167H17.2629Z" fill="#8E8E8E" stroke="#8E8E8E" stroke-width="0.3"/>
<path d="M13.574 9.18298L13.6179 9.25427L14.5232 10.726L15.4343 9.25427L15.4783 9.18298H16.4187L16.2742 9.41345L15.0701 11.3324L16.2742 13.2533L16.4187 13.4828H15.4792L15.4353 13.4135L14.5232 11.9681L13.6111 13.4135L13.5671 13.4828H12.6238L12.7732 13.2513L14.0076 11.3324L12.7732 9.41443L12.6238 9.18298H13.574Z" fill="#8E8E8E" stroke="#8E8E8E" stroke-width="0.3"/>
</svg>
