<svg width="32" height="32" viewBox="0 0 32 32" fill="none" xmlns="http://www.w3.org/2000/svg">
<rect x="0.5" y="0.5" width="31" height="31" rx="3.5" fill="#00BFFF" fill-opacity="0.05"/>
<rect x="0.5" y="0.5" width="31" height="31" rx="3.5" stroke="#234257"/>
<path d="M24.1136 23.1354L19.9846 19.0064C21.1098 17.6303 21.663 15.8743 21.5298 14.1017C21.3966 12.3291 20.5872 10.6755 19.269 9.48291C17.9509 8.29034 16.2247 7.65006 14.4477 7.69449C12.6706 7.73892 10.9786 8.46467 9.72168 9.72162C8.46473 10.9786 7.73898 12.6706 7.69455 14.4476C7.65012 16.2246 8.2904 17.9508 9.48297 19.269C10.6755 20.5872 12.3291 21.3966 14.1017 21.5298C15.8743 21.663 17.6303 21.1097 19.0065 19.9845L23.1355 24.1135C23.2659 24.2395 23.4407 24.3093 23.622 24.3077C23.8034 24.3061 23.9769 24.2334 24.1052 24.1051C24.2334 23.9768 24.3062 23.8033 24.3077 23.622C24.3093 23.4406 24.2396 23.2659 24.1136 23.1354ZM14.6319 20.1658C13.5374 20.1658 12.4675 19.8412 11.5574 19.2331C10.6474 18.6251 9.9381 17.7608 9.51925 16.7496C9.1004 15.7384 8.99081 14.6257 9.20434 13.5522C9.41786 12.4788 9.94492 11.4927 10.7188 10.7188C11.4928 9.94486 12.4788 9.4178 13.5523 9.20427C14.6258 8.99075 15.7385 9.10034 16.7497 9.51919C17.7608 9.93803 18.6251 10.6473 19.2332 11.5574C19.8413 12.4674 20.1658 13.5374 20.1658 14.6319C20.1642 16.099 19.5806 17.5057 18.5432 18.5431C17.5057 19.5806 16.0991 20.1641 14.6319 20.1658Z" fill="#8E8E8E"/>
<path d="M17.125 14H11.875C11.6429 14 11.4204 14.079 11.2563 14.2197C11.0922 14.3603 11 14.5511 11 14.75C11 14.9489 11.0922 15.1397 11.2563 15.2803C11.4204 15.421 11.6429 15.5 11.875 15.5H17.125C17.3571 15.5 17.5796 15.421 17.7437 15.2803C17.9078 15.1397 18 14.9489 18 14.75C18 14.5511 17.9078 14.3603 17.7437 14.2197C17.5796 14.079 17.3571 14 17.125 14Z" fill="#8E8E8E"/>
</svg>
