<svg width="56" height="56" viewBox="0 0 56 56" fill="none" xmlns="http://www.w3.org/2000/svg">
<rect x="0.5" y="0.5" width="55" height="55" rx="7.5" fill="#00BFFF" fill-opacity="0.05"/>
<rect x="0.5" y="0.5" width="55" height="55" rx="7.5" stroke="#234257"/>
<path d="M25.2183 19.9454C25.0444 19.9582 24.502 19.9964 24.0012 20.0346C22.5686 20.1428 20.9829 20.3402 19.5155 20.6075C15.1549 21.397 12.0253 22.7593 10.836 24.3891C10.3631 25.0385 10.231 25.4077 10.231 26.1144C10.231 26.821 10.3631 27.1902 10.836 27.8396C12.1991 29.7113 16.1633 31.2328 21.4976 31.9331C23.7091 32.226 24.6411 32.2833 27.7011 32.2833L30.643 32.2896L29.259 33.5629C28.5009 34.2632 27.8402 34.8998 27.7985 34.9762C27.6246 35.2945 27.7846 35.7783 28.1323 35.9693C28.4453 36.1348 28.8347 36.1094 29.1547 35.8929C29.6971 35.53 33.2788 32.1687 33.3901 31.9267C33.5222 31.6275 33.5222 31.3601 33.3901 31.0609C33.2718 30.7999 29.3633 27.1648 29.0295 26.9993C28.7791 26.8783 28.3757 26.8847 28.1323 27.0184C27.7846 27.2093 27.6246 27.6932 27.7985 28.0115C27.8402 28.0879 28.487 28.7118 29.2381 29.4057L30.5943 30.6535L30.2674 30.6981C29.6971 30.7808 24.9262 30.6853 23.6883 30.5771C18.5557 30.106 14.4664 28.9282 12.7486 27.4258C12.1644 26.9165 11.9696 26.5918 11.9696 26.1144C11.9696 25.6369 12.1644 25.3122 12.7486 24.8029C14.4664 23.3005 18.5627 22.1227 23.6883 21.6516C26.1433 21.4288 30.3717 21.4606 33.0423 21.728C36.8952 22.11 40.4699 23.0522 42.4312 24.1981C42.9667 24.5164 43.6135 25.083 43.8499 25.4459C44.1072 25.847 44.1072 26.3817 43.8499 26.7828C43.6135 27.1457 42.9667 27.7123 42.4312 28.0306C41.9165 28.3298 40.5047 28.9473 39.8649 29.1447C39.3085 29.3229 39.0234 29.5458 38.9608 29.8641C38.8634 30.3288 39.2876 30.7935 39.8092 30.7935C40.0874 30.7935 41.3462 30.3543 42.2573 29.9341C43.6343 29.3038 44.608 28.6036 45.1644 27.8332C45.6373 27.1902 45.7694 26.821 45.7694 26.1144C45.7694 25.4077 45.6373 25.0385 45.1644 24.3891C43.6065 22.2564 38.9886 20.6839 32.4512 20.06C31.4358 19.9645 26.0876 19.8818 25.2183 19.9454Z" fill="#8E8E8E" stroke="#8E8E8E" stroke-width="0.5"/>
</svg>
