<svg width="32" height="32" viewBox="0 0 32 32" fill="none" xmlns="http://www.w3.org/2000/svg">
<rect width="32" height="32" rx="4" fill="#234257" fill-opacity="0.05"/>
<path d="M24.5555 23.7777H8.99996C8.79368 23.7777 8.59585 23.6958 8.44999 23.5499C8.30413 23.4041 8.22218 23.2062 8.22218 23V7.4444C8.22218 7.23812 8.14024 7.04029 7.99438 6.89443C7.84851 6.74857 7.65068 6.66663 7.4444 6.66663C7.23812 6.66663 7.04029 6.74857 6.89443 6.89443C6.74857 7.04029 6.66663 7.23812 6.66663 7.4444V23C6.66663 23.6188 6.91246 24.2123 7.35004 24.6499C7.78763 25.0875 8.38112 25.3333 8.99996 25.3333H24.5555C24.7618 25.3333 24.9596 25.2513 25.1055 25.1055C25.2513 24.9596 25.3333 24.7618 25.3333 24.5555C25.3333 24.3492 25.2513 24.1514 25.1055 24.0055C24.9596 23.8597 24.7618 23.7777 24.5555 23.7777Z" fill="#8E8E8E"/>
<path d="M17.3334 16.6667C17.3334 16.4899 17.2397 16.3203 17.073 16.1953C16.9063 16.0703 16.6802 16 16.4445 16H10.2223C9.98651 16 9.76042 16.0703 9.59372 16.1953C9.42702 16.3203 9.33337 16.4899 9.33337 16.6667C9.33337 16.8435 9.42702 17.0131 9.59372 17.1381C9.76042 17.2631 9.98651 17.3334 10.2223 17.3334H16.4445C16.6802 17.3334 16.9063 17.2631 17.073 17.1381C17.2397 17.0131 17.3334 16.8435 17.3334 16.6667Z" fill="#8E8E8E"/>
<path d="M14.6667 20C14.6667 19.8231 14.6043 19.6536 14.4931 19.5286C14.382 19.4035 14.2313 19.3333 14.0741 19.3333H9.92597C9.7688 19.3333 9.61807 19.4035 9.50694 19.5286C9.39581 19.6536 9.33337 19.8231 9.33337 20C9.33337 20.1768 9.39581 20.3463 9.50694 20.4714C9.61807 20.5964 9.7688 20.6666 9.92597 20.6666H14.0741C14.2313 20.6666 14.382 20.5964 14.4931 20.4714C14.6043 20.3463 14.6667 20.1768 14.6667 20Z" fill="#8E8E8E"/>
<path d="M22.6667 9.99996C22.6667 9.82315 22.5664 9.65358 22.3878 9.52855C22.2092 9.40353 21.9669 9.33329 21.7143 9.33329H10.2858C10.0332 9.33329 9.79093 9.40353 9.61232 9.52855C9.43371 9.65358 9.33337 9.82315 9.33337 9.99996C9.33337 10.1768 9.43371 10.3463 9.61232 10.4714C9.79093 10.5964 10.0332 10.6666 10.2858 10.6666H21.7143C21.9669 10.6666 22.2092 10.5964 22.3878 10.4714C22.5664 10.3463 22.6667 10.1768 22.6667 9.99996Z" fill="#8E8E8E"/>
<path d="M20 13.3333C20 13.1565 19.9198 12.987 19.7769 12.8619C19.634 12.7369 19.4402 12.6667 19.2381 12.6667H10.0953C9.89321 12.6667 9.69942 12.7369 9.55653 12.8619C9.41365 12.987 9.33337 13.1565 9.33337 13.3333C9.33337 13.5101 9.41365 13.6797 9.55653 13.8047C9.69942 13.9298 9.89321 14 10.0953 14H19.2381C19.4402 14 19.634 13.9298 19.7769 13.8047C19.9198 13.6797 20 13.5101 20 13.3333Z" fill="#8E8E8E"/>
</svg>
