<svg width="24" height="24" viewBox="0 0 24 24" fill="none" xmlns="http://www.w3.org/2000/svg">
<path d="M3.53852 6.27687H5.64313C5.80824 6.86001 6.16865 7.37481 6.66877 7.74182C7.16889 8.10884 7.78092 8.30769 8.41044 8.30769C9.03996 8.30769 9.652 8.10884 10.1521 7.74182C10.6522 7.37481 11.0126 6.86001 11.1777 6.27687H20.4616C20.6656 6.27687 20.8613 6.19907 21.0055 6.06059C21.1498 5.92211 21.2308 5.7343 21.2308 5.53846C21.2308 5.34262 21.1498 5.1548 21.0055 5.01632C20.8613 4.87784 20.6656 4.80005 20.4616 4.80005H11.1777C11.0126 4.2169 10.6522 3.70211 10.1521 3.33509C9.652 2.96807 9.03996 2.76923 8.41044 2.76923C7.78092 2.76923 7.16889 2.96807 6.66877 3.33509C6.16865 3.70211 5.80824 4.2169 5.64313 4.80005H3.53852C3.33451 4.80005 3.13885 4.87784 2.99459 5.01632C2.85033 5.1548 2.76929 5.34262 2.76929 5.53846C2.76929 5.7343 2.85033 5.92211 2.99459 6.06059C3.13885 6.19907 3.33451 6.27687 3.53852 6.27687ZM8.41006 4.24624C8.6763 4.24624 8.93657 4.32203 9.15794 4.46402C9.37931 4.60601 9.55185 4.80782 9.65374 5.04395C9.75563 5.28007 9.78229 5.53989 9.73035 5.79056C9.6784 6.04122 9.55019 6.27147 9.36193 6.45219C9.17367 6.63291 8.93381 6.75599 8.67268 6.80585C8.41155 6.85571 8.14088 6.83012 7.89491 6.73231C7.64893 6.63451 7.43869 6.46888 7.29077 6.25638C7.14285 6.04387 7.0639 5.79403 7.0639 5.53846C7.06431 5.19586 7.20627 4.86741 7.45863 4.62515C7.711 4.3829 8.05316 4.24663 8.41006 4.24624Z" fill="white"/>
<path d="M20.4616 11.2618H18.357C18.1921 10.6787 17.8319 10.1638 17.3318 9.79674C16.8317 9.42966 16.2196 9.23077 15.5901 9.23077C14.9605 9.23077 14.3484 9.42966 13.8483 9.79674C13.3482 10.1638 12.988 10.6787 12.8231 11.2618H3.53852C3.33451 11.2618 3.13885 11.3396 2.99459 11.478C2.85033 11.6164 2.76929 11.8042 2.76929 12C2.76929 12.1958 2.85033 12.3836 2.99459 12.522C3.13885 12.6604 3.33451 12.7382 3.53852 12.7382H12.8231C12.988 13.3214 13.3482 13.8362 13.8483 14.2033C14.3484 14.5703 14.9605 14.7692 15.5901 14.7692C16.2196 14.7692 16.8317 14.5703 17.3318 14.2033C17.8319 13.8362 18.1921 13.3214 18.357 12.7382H20.4616C20.6656 12.7382 20.8613 12.6604 21.0055 12.522C21.1498 12.3836 21.2308 12.1958 21.2308 12C21.2308 11.8042 21.1498 11.6164 21.0055 11.478C20.8613 11.3396 20.6656 11.2618 20.4616 11.2618ZM15.5901 13.2919C15.3238 13.2919 15.0635 13.2161 14.8422 13.0742C14.6208 12.9322 14.4483 12.7304 14.3464 12.4944C14.2445 12.2583 14.2178 11.9986 14.2698 11.748C14.3217 11.4974 14.4499 11.2672 14.6382 11.0865C14.8264 10.9058 15.0663 10.7828 15.3274 10.7329C15.5886 10.6831 15.8592 10.7087 16.1052 10.8065C16.3512 10.9042 16.5614 11.0698 16.7093 11.2823C16.8573 11.4947 16.9362 11.7445 16.9362 12C16.9358 12.3425 16.7938 12.6709 16.5415 12.9131C16.2891 13.1553 15.947 13.2915 15.5901 13.2919Z" fill="white"/>
<path d="M20.4616 17.7231H11.1777C11.0126 17.14 10.6522 16.6252 10.1521 16.2582C9.652 15.8912 9.03996 15.6923 8.41044 15.6923C7.78092 15.6923 7.16889 15.8912 6.66877 16.2582C6.16865 16.6252 5.80824 17.14 5.64313 17.7231H3.53852C3.33451 17.7231 3.13885 17.8009 2.99459 17.9394C2.85033 18.0779 2.76929 18.2657 2.76929 18.4616C2.76929 18.6574 2.85033 18.8452 2.99459 18.9837C3.13885 19.1222 3.33451 19.2 3.53852 19.2H5.64313C5.80824 19.7831 6.16865 20.2979 6.66877 20.6649C7.16889 21.0319 7.78092 21.2308 8.41044 21.2308C9.03996 21.2308 9.652 21.0319 10.1521 20.6649C10.6522 20.2979 11.0126 19.7831 11.1777 19.2H20.4616C20.6656 19.2 20.8613 19.1222 21.0055 18.9837C21.1498 18.8452 21.2308 18.6574 21.2308 18.4616C21.2308 18.2657 21.1498 18.0779 21.0055 17.9394C20.8613 17.8009 20.6656 17.7231 20.4616 17.7231ZM8.41006 19.7538C8.14381 19.7538 7.88355 19.678 7.66217 19.536C7.4408 19.394 7.26826 19.1922 7.16637 18.9561C7.06449 18.7199 7.03783 18.4601 7.08977 18.2095C7.14171 17.9588 7.26992 17.7285 7.45818 17.5478C7.64645 17.3671 7.88631 17.244 8.14744 17.1942C8.40856 17.1443 8.67923 17.1699 8.92521 17.2677C9.17119 17.3655 9.38143 17.5311 9.52934 17.7436C9.67726 17.9561 9.75621 18.206 9.75621 18.4616C9.7556 18.8041 9.61358 19.1324 9.36126 19.3746C9.10894 19.6169 8.76689 19.7532 8.41006 19.7538Z" fill="white"/>
</svg>
