<svg width="58" height="34" viewBox="0 0 58 34" fill="none" xmlns="http://www.w3.org/2000/svg">
<rect x="11" y="5" width="9" height="4" fill="#555555"/>
<rect x="11" y="9" width="9" height="4" fill="#555555"/>
<rect x="11" y="13" width="9" height="4" fill="#555555"/>
<rect x="11" y="17" width="9" height="4" fill="#555555"/>
<rect x="11" y="21" width="9" height="4" fill="#555555"/>
<rect x="11" y="25" width="9" height="4" fill="#555555"/>
<rect x="20" y="5" width="9" height="4" fill="#8E8E8E"/>
<rect x="20" y="9" width="9" height="4" fill="#8E8E8E"/>
<rect x="20" y="13" width="9" height="4" fill="#8E8E8E"/>
<rect x="20" y="17" width="9" height="4" fill="#8E8E8E"/>
<rect x="20" y="21" width="9" height="4" fill="#8E8E8E"/>
<rect x="20" y="25" width="9" height="4" fill="#8E8E8E"/>
<rect x="29" y="5" width="9" height="4" fill="#C8C8C8"/>
<rect x="29" y="9" width="9" height="4" fill="#C8C8C8"/>
<rect x="29" y="13" width="9" height="4" fill="#C8C8C8"/>
<rect x="29" y="17" width="9" height="4" fill="#C8C8C8"/>
<rect x="29" y="21" width="9" height="4" fill="#C8C8C8"/>
<rect x="29" y="25" width="9" height="4" fill="#C8C8C8"/>
<rect x="38" y="5" width="9" height="4" fill="#E4E4E4"/>
<rect x="38" y="9" width="9" height="4" fill="#E4E4E4"/>
<rect x="38" y="13" width="9" height="4" fill="#E4E4E4"/>
<rect x="38" y="17" width="9" height="4" fill="#E4E4E4"/>
<rect x="38" y="21" width="9" height="4" fill="#E4E4E4"/>
<rect x="38" y="25" width="9" height="4" fill="#E4E4E4"/>
<path d="M29 5V29" stroke="#234257"/>
<path d="M38 5V29" stroke="#234257"/>
<path d="M20 5V29" stroke="#234257"/>
<path d="M11 9L47 9" stroke="#234257"/>
<path d="M11 13L47 13" stroke="#234257"/>
<path d="M11 21L47 21" stroke="#234257"/>
<path d="M11 17L47 17" stroke="#234257"/>
<path d="M11 25L47 25" stroke="#234257"/>
</svg>
