<svg width="58" height="34" viewBox="0 0 58 34" fill="none" xmlns="http://www.w3.org/2000/svg">
<path d="M20.3 11H24.5L23 12.5H18.5L20.3 11Z" fill="#C8C8C8"/>
<rect x="18.5" y="12.5" width="4.5" height="19.5" fill="#8E8E8E"/>
<path d="M23 12.5001L24.5 11V29L23 32V12.5001Z" fill="#555555"/>
<path d="M12.8 19.9999H17L15.5 20.857H11L12.8 19.9999Z" fill="#C8C8C8"/>
<rect x="11" y="20.8573" width="4.5" height="11.1429" fill="#8E8E8E"/>
<path d="M15.5 20.8572L17 20V30.2857L15.5 32V20.8572Z" fill="#555555"/>
<path d="M27.8 1.99988H32L30.5 4.14274H26L27.8 1.99988Z" fill="#C8C8C8"/>
<rect x="26" y="4.1427" width="4.5" height="27.8571" fill="#8E8E8E"/>
<path d="M30.5 4.14299L32 2V27.7143L30.5 32V4.14299Z" fill="#555555"/>
<path d="M35.3 5H39.5L38 6.92857H33.5L35.3 5Z" fill="#C8C8C8"/>
<rect x="33.5" y="6.92847" width="4.5" height="25.0714" fill="#8E8E8E"/>
<path d="M38 6.92869L39.5 5V28.1429L38 32V6.92869Z" fill="#555555"/>
<path d="M42.8 17H47L45.5 18.0714H41L42.8 17Z" fill="#C8C8C8"/>
<rect x="41" y="18.0715" width="4.5" height="13.9286" fill="#8E8E8E"/>
<path d="M45.5 18.0715L47 17V29.8571L45.5 32V18.0715Z" fill="#555555"/>
</svg>
