<svg width="32" height="32" viewBox="0 0 32 32" fill="none" xmlns="http://www.w3.org/2000/svg">
<rect width="32" height="32" rx="4" fill="#234257" fill-opacity="0.05"/>
<path d="M25.3123 14.0273C25.1045 10.0508 21.949 6.89623 17.9731 6.68764L17.5637 6.66663V14.4351H25.3333L25.3123 14.0273ZM18.342 13.6568V7.49866C21.5886 7.85669 24.1432 10.4112 24.5012 13.6584H18.342V13.6568ZM23.7532 15.9918H16.007V8.24741C16.007 8.24741 15.322 8.21005 15.2286 8.21005C10.5078 8.21005 6.66663 12.0511 6.66663 16.7717C6.66663 21.4922 10.5078 25.3333 15.2286 25.3333C19.9494 25.3333 23.7906 21.4922 23.7906 16.7717C23.7906 16.6783 23.7532 15.9933 23.7532 15.9933V15.9918ZM15.2286 24.5534C10.9367 24.5534 7.44499 21.0618 7.44499 16.7701C7.44499 12.4784 10.9367 8.98838 15.2286 8.98838V16.7717H23.0122C23.0122 21.0634 19.5205 24.555 15.2286 24.555V24.5534Z" fill="#8E8E8E" stroke="#8E8E8E" stroke-width="0.5"/>
</svg>
